<svg xmlns="http://www.w3.org/2000/svg" viewBox="0 0 24.818 23.932"><g fill="none"><path d="M15.479 16.806c-.612-.1-.626-1.781-.626-1.781a8.574 8.574 0 0 0 2.192-4.177c1.055 0 1.707-2.547.651-3.443.044-.943 1.356-7.4-5.287-7.4s-5.331 6.461-5.287 7.4c-1.055.9-.4 3.443.652 3.443a8.574 8.574 0 0 0 2.192 4.177s-.014 1.684-.626 1.781C7.367 17.12 0 20.369 0 23.932h24.818c0-3.563-7.366-6.812-9.339-7.126z"/><path d="M23.537 22.932c-.486-.92-1.586-1.944-3.176-2.932-1.985-1.232-4.202-2.073-5.04-2.207-1.306-.208-1.462-2-1.469-2.76l-.005-.42.3-.297c.016-.016 1.578-1.6 1.91-3.63l.138-.839h.737c.114-.135.284-.516.3-.973.012-.37-.083-.622-.184-.707l-.374-.318.023-.491c.005-.11.02-.244.037-.413.108-1.004.361-3.356-.893-4.752C15.131 1.4 13.976 1 12.41 1s-2.721.401-3.432 1.193C7.724 3.589 7.977 5.94 8.085 6.944c.018.17.032.304.037.414l.023.49-.374.319c-.1.085-.196.337-.183.707.015.457.185.838.3.973h.737l.137.839c.332 2.03 1.894 3.614 1.908 3.628l.3.297-.003.422c-.007.76-.162 2.552-1.47 2.76-.837.134-3.054.975-5.039 2.207-1.59.988-2.69 2.012-3.176 2.932h22.256m1.281 1H0c0-3.563 7.367-6.812 9.34-7.126.612-.098.626-1.782.626-1.782s-1.8-1.781-2.192-4.177c-1.055 0-1.707-2.546-.652-3.442C7.078 6.46 5.766 0 12.41 0s5.33 6.461 5.287 7.405c1.055.896.403 3.442-.652 3.442-.392 2.396-2.192 4.177-2.192 4.177s.014 1.684.627 1.782c1.973.314 9.34 3.563 9.34 7.126z"/></g></svg>