<svg xmlns="http://www.w3.org/2000/svg" viewBox="0 0 24 24.151"><g fill="none"><path d="M23.868 11.02L12 0 .132 11.02a.414.414 0 0 0 .563.607l1.787-1.66v14.184h6.621V16.7a2.9 2.9 0 1 1 5.793 0v7.448h6.621V9.967l1.787 1.66a.414.414 0 0 0 .564-.607z"/><path d="M12 1.365L3.482 9.274V23.15h4.621v-6.448A3.901 3.901 0 0 1 12 12.806a3.901 3.901 0 0 1 3.896 3.897v6.448h4.621V9.274L12 1.364M12 0l11.868 11.02a.414.414 0 0 1-.564.607l-1.787-1.66v14.184h-6.62v-7.448a2.897 2.897 0 1 0-5.794 0v7.448h-6.62V9.967l-1.788 1.66a.413.413 0 0 1-.585-.022.414.414 0 0 1 .022-.585L12 0z"/></g></svg>