<svg xmlns="http://www.w3.org/2000/svg" viewBox="0 0 16 16"><path d="M4.773 1A3.781 3.781 0 0 0 1 4.773c0 .563.172 1.079.395 1.559-.07.379-.122.766-.122 1.168A6.233 6.233 0 0 0 7.5 13.727a6.1 6.1 0 0 0 1.176-.122c.48.22.992.395 1.554.395A3.78 3.78 0 0 0 14 10.227c.004 0 .004 0 0-.004 0-.559-.172-1.075-.39-1.555.07-.379.12-.766.12-1.168A6.236 6.236 0 0 0 7.5 1.273c-.398 0-.79.047-1.172.122C5.848 1.172 5.332 1 4.773 1zm0 1c.48 0 .926.121 1.32.336a.5.5 0 0 0 .337.047c.347-.07.707-.11 1.07-.11a5.22 5.22 0 0 1 5.117 6.297.494.494 0 0 0 .051.34c.21.39.332.84.332 1.317A2.763 2.763 0 0 1 10.23 13c-.48 0-.93-.121-1.32-.332a.494.494 0 0 0-.34-.05c-.347.07-.703.109-1.07.109A5.216 5.216 0 0 1 2.273 7.5c0-.367.04-.723.11-1.07a.502.502 0 0 0-.051-.336A2.78 2.78 0 0 1 2 4.774 2.764 2.764 0 0 1 4.773 2zM7.47 4c-1.317 0-2.711.559-2.711 2.043 0 .715.254 1.477 1.66 1.828l1.746.434c.527.133.66.43.66.699 0 .445-.441.883-1.246.883-1.57 0-1.351-1.207-2.191-1.207-.38 0-.653.261-.653.633 0 .722.88 1.687 2.844 1.687 1.867 0 2.797-.902 2.797-2.11 0-.777-.36-1.605-1.777-1.921l-1.293-.285c-.492-.114-1.059-.258-1.059-.723 0-.465.399-.79 1.113-.79 1.446 0 1.317.993 2.032.993.379 0 .707-.223.707-.605C10.098 4.668 8.676 4 7.468 4z"/></svg>